<svg viewBox="0 0 256 256" xmlns="http://www.w3.org/2000/svg" xmlns:xlink="http://www.w3.org/1999/xlink" preserveAspectRatio="xMidYMid" fill="#000000"><g id="SVGRepo_bgCarrier" stroke-width="0"></g><g id="SVGRepo_tracerCarrier" stroke-linecap="round" stroke-linejoin="round"></g><g id="SVGRepo_iconCarrier"> <defs> <style> .cls-3 { fill: #1c8cea; } .cls-4 { fill: #fc0231; } .cls-5 { fill: #ff5134; } .cls-6 { fill: #a74920; } </style> </defs> <g id="jump_rope"> <path d="M222.000,66.000 C222.000,66.000 222.000,36.000 222.000,36.000 C222.000,20.536 209.464,8.000 194.000,8.000 C178.536,8.000 166.000,20.536 166.000,36.000 C166.000,36.000 166.000,218.000 166.000,218.000 C166.000,238.987 148.987,256.000 128.000,256.000 C107.013,256.000 90.000,238.987 90.000,218.000 C90.000,218.000 90.000,36.000 90.000,36.000 C90.000,20.536 77.464,8.000 62.000,8.000 C46.536,8.000 34.000,20.536 34.000,36.000 C34.000,36.000 34.000,66.000 34.000,66.000 C34.000,66.000 26.000,66.000 26.000,66.000 C26.000,66.000 26.000,36.000 26.000,36.000 C26.000,16.118 42.118,-0.000 62.000,-0.000 C81.882,-0.000 98.000,16.118 98.000,36.000 C98.000,36.000 98.000,58.000 98.000,58.000 C98.000,58.000 98.000,218.000 98.000,218.000 C98.000,234.568 111.431,248.000 128.000,248.000 C144.568,248.000 158.000,234.568 158.000,218.000 C158.000,218.000 158.000,58.000 158.000,58.000 C158.000,58.000 158.000,36.000 158.000,36.000 C158.000,16.118 174.118,-0.000 194.000,-0.000 C213.882,-0.000 230.000,16.118 230.000,36.000 C230.000,36.000 230.000,66.000 230.000,66.000 C230.000,66.000 222.000,66.000 222.000,66.000 Z" id="path-1" class="cls-3" fill-rule="evenodd"></path> <path d="M240.000,256.000 C240.000,256.000 212.000,256.000 212.000,256.000 C203.163,256.000 196.000,248.836 196.000,240.000 C196.000,240.000 196.000,140.000 196.000,140.000 C196.000,140.000 256.000,140.000 256.000,140.000 C256.000,140.000 256.000,240.000 256.000,240.000 C256.000,248.836 248.836,256.000 240.000,256.000 ZM44.000,256.000 C44.000,256.000 16.000,256.000 16.000,256.000 C7.163,256.000 -0.000,248.836 -0.000,240.000 C-0.000,240.000 -0.000,140.000 -0.000,140.000 C-0.000,140.000 60.000,140.000 60.000,140.000 C60.000,140.000 60.000,240.000 60.000,240.000 C60.000,248.836 52.837,256.000 44.000,256.000 Z" id="path-2" class="cls-4" fill-rule="evenodd"></path> <path d="M196.000,140.000 C196.000,140.000 196.000,106.000 196.000,106.000 C196.000,106.000 256.000,106.000 256.000,106.000 C256.000,106.000 256.000,140.000 256.000,140.000 C256.000,140.000 196.000,140.000 196.000,140.000 ZM-0.000,106.000 C-0.000,106.000 60.000,106.000 60.000,106.000 C60.000,106.000 60.000,140.000 60.000,140.000 C60.000,140.000 -0.000,140.000 -0.000,140.000 C-0.000,140.000 -0.000,106.000 -0.000,106.000 Z" id="path-3" class="cls-5" fill-rule="evenodd"></path> <path d="M241.000,85.799 C241.000,85.799 241.000,106.000 241.000,106.000 C241.000,106.000 211.000,106.000 211.000,106.000 C211.000,106.000 211.000,85.799 211.000,85.799 C206.435,84.872 203.000,80.838 203.000,76.000 C203.000,70.477 207.477,66.000 213.000,66.000 C213.000,66.000 239.000,66.000 239.000,66.000 C244.523,66.000 249.000,70.477 249.000,76.000 C249.000,80.838 245.564,84.872 241.000,85.799 ZM45.000,106.000 C45.000,106.000 15.000,106.000 15.000,106.000 C15.000,106.000 15.000,85.799 15.000,85.799 C10.435,84.872 7.000,80.838 7.000,76.000 C7.000,70.477 11.477,66.000 17.000,66.000 C17.000,66.000 43.000,66.000 43.000,66.000 C48.523,66.000 53.000,70.477 53.000,76.000 C53.000,80.838 49.564,84.872 45.000,85.799 C45.000,85.799 45.000,106.000 45.000,106.000 Z" id="path-4" class="cls-6" fill-rule="evenodd"></path> </g> </g></svg>